<?xml version="1.0" encoding="UTF-8"?>
<svg id="Layer_1" data-name="Layer 1" xmlns="http://www.w3.org/2000/svg" viewBox="0 0 256 256">
  <defs>
    <style>
      .cls-1 {
        fill: #231f20;
      }
    </style>
  </defs>
  <path class="cls-1" d="M235.85,116.59l-28.51-28.51c-3.46-3.46-6.94-5.95-10.47-7.48-3.52-1.53-7.08-2.36-10.67-2.49-2.39-.26-4.95-.17-7.68.3-2.72.47-5.48,1.03-8.28,1.69.53-4.52.23-9.6-.9-15.25-1.13-5.65-4.35-11.13-9.67-16.45l-22.53-22.53c-5.45-5.45-11.07-9.4-16.85-11.86-5.78-2.45-11.66-3.22-17.65-2.29l.2-.2c-5.72,1.2-11.2,3.09-16.45,5.68-5.25,2.59-9.6,5.62-13.06,9.07L15.53,84.09c-3.46,3.46-5.62,7.21-6.48,11.27-.87,4.06,1.1,8.47,5.88,13.26l38.72,38.72,10.03-37.38-16.85-16.9,41.67-41.67c4.92-4.92,9.8-7.01,14.66-6.28,4.85.73,8.94,2.76,12.26,6.08l20.14,20.14c1.46,1.46,2.86,2.99,4.19,4.59,1.33,1.6,2.19,3.33,2.59,5.18.4,1.86.2,3.99-.6,6.38-.8,2.39-2.59,5.12-5.38,8.17-3.72,0-7.41.5-11.07,1.5-3.65,1-6.68,2.69-9.07,5.08-4.52,4.52-6.78,9.97-6.78,16.35,0,6.38,2.33,11.9,6.98,16.55,4.65,4.65,10.17,6.98,16.55,6.98,6.38,0,11.83-2.26,16.35-6.78,5.31-5.31,7.58-12.09,6.78-20.34,6.11-5.32,11.73-7.67,16.85-7.08,5.12.6,9.21,2.43,12.26,5.48l25.32,25.32c3.46,3.46,5.58,7.58,6.38,12.36.8,4.79-1.26,9.64-6.18,14.56l-27.32,27.32c-5.58,5.58-5.05,11.7,1.59,18.34,3.06,3.06,6.15,4.89,9.27,5.48,3.12.6,5.81-.23,8.08-2.49l29.51-29.51c3.72-3.72,6.81-8.14,9.27-13.26,2.46-5.12,4.49-11.13,6.08-18.04,3.32-13.69-.46-25.99-11.37-36.89Z"/>
  <path class="cls-1" d="M75.39,121.71l-10.02,37.35,87.94,87.94c6.38,6.38,13.49,5.65,21.33-2.19,2.92-2.92,4.92-6.31,5.98-10.17,1.06-3.85.27-7.11-2.39-9.77l-102.84-103.15Z"/>
</svg>